<?xml version="1.0" encoding="UTF-8" standalone="no"?>
<svg
   width="586.31525"
   height="273.09698"
   viewBox="0 0 586.31525 273.09698"
   role="img"
   artist="Katerina Limpitsouni"
   source="https://undraw.co/"
   version="1.1"
   id="svg51"
   sodipodi:docname="undraw_reviewed-docs_tng3.svg"
   inkscape:version="1.4-beta3 (01c8a1ca, 2024-08-28)"
   xmlns:inkscape="http://www.inkscape.org/namespaces/inkscape"
   xmlns:sodipodi="http://sodipodi.sourceforge.net/DTD/sodipodi-0.dtd"
   xmlns="http://www.w3.org/2000/svg"
   xmlns:svg="http://www.w3.org/2000/svg">
  <defs
     id="defs51" />
  <sodipodi:namedview
     id="namedview51"
     pagecolor="#ffffff"
     bordercolor="#000000"
     borderopacity="0.25"
     inkscape:showpageshadow="2"
     inkscape:pageopacity="0.0"
     inkscape:pagecheckerboard="0"
     inkscape:deskcolor="#d1d1d1"
     inkscape:zoom="0.55950587"
     inkscape:cx="259.15725"
     inkscape:cy="106.34384"
     inkscape:window-width="1200"
     inkscape:window-height="1186"
     inkscape:window-x="0"
     inkscape:window-y="25"
     inkscape:window-maximized="0"
     inkscape:current-layer="g51" />
  <g
     transform="translate(-489.63549,-373.481)"
     id="g51">
    <path
       d="m 532.879,426.451 a 6.966,6.966 0 0 0 -6.37,-4.262 H 399.355 a 6.9,6.9 0 0 0 -6.893,6.893 v 160.861 a 6.9,6.9 0 0 0 6.893,6.893 h 127.158 a 6.9,6.9 0 0 0 6.893,-6.893 V 429.081 a 6.768,6.768 0 0 0 -0.522,-2.631 z m -1.008,163.492 a 5.369,5.369 0 0 1 -5.362,5.362 H 399.355 a 5.363,5.363 0 0 1 -5.362,-5.36 V 429.082 a 5.369,5.369 0 0 1 5.362,-5.362 h 127.158 a 5.389,5.389 0 0 1 4.977,3.373 5.969,5.969 0 0 1 0.2,0.6 5.318,5.318 0 0 1 0.183,1.384 z"
       transform="translate(523.536,49.193)"
       fill="#3f3d56"
       id="path3" />
    <path
       d="m 512.943,463.066 h -38.3 a 3.064,3.064 0 1 1 0,-6.128 h 38.3 a 3.064,3.064 0 0 1 0,6.128 z"
       transform="translate(516.937,46.294)"
       fill="#3f3d56"
       id="path4" />
    <path
       d="m 512.943,480.616 h -38.3 a 3.064,3.064 0 1 1 0,-6.128 h 38.3 a 3.064,3.064 0 0 1 0,6.128 z"
       transform="translate(516.937,44.83)"
       fill="#3f3d56"
       id="path5" />
    <path
       d="m 450.62,487.534 h -27.99 a 3.451,3.451 0 0 1 -3.447,-3.447 v -33.03 a 3.451,3.451 0 0 1 3.447,-3.447 h 27.99 a 3.451,3.451 0 0 1 3.447,3.447 v 33.03 a 3.451,3.451 0 0 1 -3.447,3.447 z"
       transform="translate(521.307,47.072)"
       fill="#000000"
       id="path6" />
    <path
       d="M 508.261,516.552 H 421.7 a 3.064,3.064 0 0 1 0,-6.128 h 86.559 a 3.064,3.064 0 1 1 0,6.128 z"
       transform="translate(521.353,41.833)"
       fill="#cccccc"
       id="path7" />
    <path
       d="M 508.261,534.1 H 421.7 a 3.064,3.064 0 0 1 0,-6.128 h 86.559 a 3.064,3.064 0 0 1 0,6.128 z"
       transform="translate(521.353,40.369)"
       fill="#cccccc"
       id="path8" />
    <path
       d="M 508.261,551.652 H 421.7 a 3.064,3.064 0 0 1 0,-6.128 h 86.559 a 3.064,3.064 0 1 1 0,6.128 z"
       transform="translate(521.353,38.905)"
       fill="#cccccc"
       id="path9" />
    <path
       d="M 508.261,569.2 H 421.7 a 3.064,3.064 0 0 1 0,-6.128 h 86.559 a 3.064,3.064 0 1 1 0,6.128 z"
       transform="translate(521.353,37.441)"
       fill="#cccccc"
       id="path10" />
    <path
       d="M 508.261,586.752 H 421.7 a 3.064,3.064 0 0 1 0,-6.128 h 86.559 a 3.064,3.064 0 1 1 0,6.128 z"
       transform="translate(521.353,35.977)"
       fill="#cccccc"
       id="path11" />
    <circle
       cx="29.570999"
       cy="29.570999"
       r="29.570999"
       transform="translate(959.048,373.481)"
       fill="#000000"
       id="circle11" />
    <path
       d="m 467.584,357.9 a 3.067,3.067 0 0 1 -1.845,-0.613 l -0.033,-0.025 -6.95,-5.316 a 3.088,3.088 0 1 1 3.758,-4.9 l 4.5,3.452 10.637,-13.877 a 3.087,3.087 0 0 1 4.328,-0.572 v 0 l -0.066,0.092 0.068,-0.092 a 3.091,3.091 0 0 1 0.571,4.329 l -12.511,16.315 a 3.089,3.089 0 0 1 -2.456,1.2 z"
       transform="translate(518.107,56.431)"
       fill="#ffffff"
       id="path12" />
    <path
       d="m 370.919,613.161 h 178.735 a 0.917,0.917 0 0 0 0,-1.833 H 370.919 a 0.917,0.917 0 1 0 0,1.833 z"
       transform="translate(525.41,33.416)"
       fill="#3f3d56"
       id="path13" />
    <g
       transform="translate(489.636,443.125)"
       id="g24">
      <circle
         cx="20.038"
         cy="20.038"
         r="20.038"
         transform="translate(50.81)"
         fill="#cccccc"
         id="circle13" />
      <path
         d="m 256.508,317.994 a 2.079,2.079 0 0 1 -1.25,-0.415 l -0.022,-0.017 -4.709,-3.606 a 2.0924094,2.0924094 0 1 1 2.545,-3.322 l 3.05,2.34 7.208,-9.4 a 2.092,2.092 0 0 1 2.933,-0.387 v 0 l -0.045,0.06 0.046,-0.06 a 2.094,2.094 0 0 1 0.387,2.933 l -8.478,11.058 a 2.093,2.093 0 0 1 -1.665,0.817 z"
         transform="translate(-187.645,-290.312)"
         fill="#ffffff"
         id="path14" />
      <path
         d="m 310.674,362 a 5.483,5.483 0 0 0 -5.012,-3.354 H 205.607 a 5.426,5.426 0 0 0 -5.423,5.423 v 126.572 a 5.426,5.426 0 0 0 5.423,5.423 h 100.055 a 5.431,5.431 0 0 0 5.423,-5.423 V 364.066 A 5.325,5.325 0 0 0 310.674,362 Z m -0.793,128.645 a 4.225,4.225 0 0 1 -4.216,4.216 H 205.607 a 4.216,4.216 0 0 1 -4.216,-4.216 v 0 -126.579 a 4.225,4.225 0 0 1 4.216,-4.216 h 100.055 a 4.24,4.24 0 0 1 3.917,2.658 4.685,4.685 0 0 1 0.159,0.476 4.179,4.179 0 0 1 0.145,1.089 z"
         transform="translate(-183.515,-294.974)"
         fill="#cccccc"
         id="path15" />
      <path
         d="m 294.984,390.808 h -30.137 a 2.411,2.411 0 1 1 0,-4.822 h 30.137 a 2.411,2.411 0 1 1 0,4.822 z"
         transform="translate(-188.707,-297.254)"
         fill="#cccccc"
         id="path16" />
      <path
         d="m 294.984,404.618 h -30.137 a 2.411,2.411 0 1 1 0,-4.822 h 30.137 a 2.411,2.411 0 1 1 0,4.822 z"
         transform="translate(-188.707,-298.406)"
         fill="#cccccc"
         id="path17" />
      <path
         d="M 245.944,410.061 H 223.92 a 2.715,2.715 0 0 1 -2.712,-2.712 v -25.99 a 2.715,2.715 0 0 1 2.712,-2.712 h 22.024 a 2.716,2.716 0 0 1 2.712,2.712 v 25.99 a 2.715,2.715 0 0 1 -2.712,2.712 z"
         transform="translate(-185.268,-296.642)"
         fill="#cccccc"
         id="path18" />
      <path
         d="m 291.3,432.894 h -68.109 a 2.411,2.411 0 0 1 0,-4.822 H 291.3 a 2.411,2.411 0 1 1 0,4.822 z"
         transform="translate(-185.233,-300.765)"
         fill="#cccccc"
         id="path19" />
      <path
         d="m 291.3,446.708 h -68.109 a 2.411,2.411 0 0 1 0,-4.822 H 291.3 a 2.411,2.411 0 1 1 0,4.822 z"
         transform="translate(-185.233,-301.917)"
         fill="#cccccc"
         id="path20" />
      <path
         d="m 291.3,460.513 h -68.109 a 2.411,2.411 0 0 1 0,-4.822 H 291.3 a 2.411,2.411 0 1 1 0,4.822 z"
         transform="translate(-185.233,-303.069)"
         fill="#cccccc"
         id="path21" />
      <path
         d="m 291.3,474.326 h -68.109 a 2.411,2.411 0 0 1 0,-4.822 H 291.3 a 2.411,2.411 0 1 1 0,4.822 z"
         transform="translate(-185.233,-304.221)"
         fill="#cccccc"
         id="path22" />
      <path
         d="m 291.3,488.132 h -68.109 a 2.411,2.411 0 0 1 0,-4.822 H 291.3 a 2.411,2.411 0 1 1 0,4.822 z"
         transform="translate(-185.233,-305.372)"
         fill="#cccccc"
         id="path23" />
      <path
         d="m 182.723,509.015 h 140.636 a 0.7215,0.7215 0 0 0 0,-1.443 H 182.723 a 0.72151109,0.72151109 0 0 0 -0.008,1.443 z"
         transform="translate(-181.998,-307.396)"
         fill="#cccccc"
         id="path24" />
    </g>
    <g
       transform="translate(666.252,444.959)"
       id="g35">
      <circle
         cx="20.038"
         cy="20.038"
         r="20.038"
         transform="translate(50.81)"
         fill="#cccccc"
         id="circle24" />
      <path
         d="m 676.508,317.994 a 2.079,2.079 0 0 1 -1.25,-0.415 l -0.022,-0.017 -4.709,-3.606 a 2.0924094,2.0924094 0 1 1 2.545,-3.322 l 3.05,2.34 7.208,-9.4 a 2.092,2.092 0 0 1 2.933,-0.387 v 0 l -0.045,0.06 0.046,-0.06 a 2.094,2.094 0 0 1 0.387,2.933 l -8.478,11.058 a 2.092,2.092 0 0 1 -1.664,0.817 z"
         transform="translate(-607.645,-290.312)"
         fill="#ffffff"
         id="path25" />
      <path
         d="m 730.674,362 a 5.483,5.483 0 0 0 -5.012,-3.354 H 625.607 a 5.426,5.426 0 0 0 -5.424,5.423 v 126.572 a 5.426,5.426 0 0 0 5.424,5.423 h 100.055 a 5.431,5.431 0 0 0 5.423,-5.423 V 364.066 a 5.323,5.323 0 0 0 -0.411,-2.07 z m -0.793,128.645 a 4.225,4.225 0 0 1 -4.216,4.216 H 625.607 a 4.216,4.216 0 0 1 -4.216,-4.216 v 0 -126.579 a 4.225,4.225 0 0 1 4.216,-4.216 h 100.056 a 4.24,4.24 0 0 1 3.917,2.658 4.675,4.675 0 0 1 0.159,0.476 4.174,4.174 0 0 1 0.145,1.089 z"
         transform="translate(-603.515,-294.974)"
         fill="#cccccc"
         id="path26" />
      <path
         d="m 714.984,390.808 h -30.137 a 2.411,2.411 0 0 1 0,-4.822 h 30.137 a 2.411,2.411 0 0 1 0,4.822 z"
         transform="translate(-608.707,-297.254)"
         fill="#cccccc"
         id="path27" />
      <path
         d="m 714.984,404.618 h -30.137 a 2.411,2.411 0 0 1 0,-4.822 h 30.136 a 2.411,2.411 0 0 1 0,4.822 z"
         transform="translate(-608.707,-298.406)"
         fill="#cccccc"
         id="path28" />
      <path
         d="M 665.944,410.061 H 643.92 a 2.715,2.715 0 0 1 -2.712,-2.712 v -25.99 a 2.715,2.715 0 0 1 2.712,-2.712 h 22.024 a 2.716,2.716 0 0 1 2.712,2.712 v 25.99 a 2.715,2.715 0 0 1 -2.712,2.712 z"
         transform="translate(-605.268,-296.642)"
         fill="#cccccc"
         id="path29" />
      <path
         d="m 711.3,432.894 h -68.109 a 2.411,2.411 0 0 1 0,-4.822 H 711.3 a 2.411,2.411 0 0 1 0,4.822 z"
         transform="translate(-605.233,-300.765)"
         fill="#cccccc"
         id="path30" />
      <path
         d="m 711.3,446.708 h -68.109 a 2.411,2.411 0 0 1 0,-4.822 H 711.3 a 2.411,2.411 0 0 1 0,4.822 z"
         transform="translate(-605.233,-301.917)"
         fill="#cccccc"
         id="path31" />
      <path
         d="m 711.3,460.513 h -68.109 a 2.411,2.411 0 0 1 0,-4.822 H 711.3 a 2.411,2.411 0 0 1 0,4.822 z"
         transform="translate(-605.233,-303.069)"
         fill="#cccccc"
         id="path32" />
      <path
         d="m 711.3,474.326 h -68.109 a 2.411,2.411 0 0 1 0,-4.822 H 711.3 a 2.411,2.411 0 0 1 0,4.822 z"
         transform="translate(-605.233,-304.221)"
         fill="#cccccc"
         id="path33" />
      <path
         d="m 711.3,488.132 h -68.109 a 2.411,2.411 0 0 1 0,-4.822 H 711.3 a 2.411,2.411 0 0 1 0,4.822 z"
         transform="translate(-605.233,-305.372)"
         fill="#cccccc"
         id="path34" />
      <path
         d="m 602.723,509.015 h 140.636 a 0.7215,0.7215 0 0 0 0,-1.443 H 602.723 a 0.72151109,0.72151109 0 0 0 -0.008,1.443 z"
         transform="translate(-601.998,-307.396)"
         fill="#cccccc"
         id="path35" />
    </g>
  </g>
</svg>
