<?xml version="1.0" encoding="UTF-8" standalone="no"?>
<svg
   width="800"
   height="545.58"
   viewBox="0 0 800 545.58"
   role="img"
   artist="Katerina Limpitsouni"
   source="https://undraw.co/"
   version="1.1"
   id="svg37"
   sodipodi:docname="undraw_ideas-flow_lwpa.svg"
   inkscape:version="1.4-beta3 (01c8a1ca, 2024-08-28)"
   xmlns:inkscape="http://www.inkscape.org/namespaces/inkscape"
   xmlns:sodipodi="http://sodipodi.sourceforge.net/DTD/sodipodi-0.dtd"
   xmlns="http://www.w3.org/2000/svg"
   xmlns:svg="http://www.w3.org/2000/svg">
  <defs
     id="defs37" />
  <sodipodi:namedview
     id="namedview37"
     pagecolor="#ffffff"
     bordercolor="#000000"
     borderopacity="0.25"
     inkscape:showpageshadow="2"
     inkscape:pageopacity="0.0"
     inkscape:pagecheckerboard="0"
     inkscape:deskcolor="#d1d1d1"
     inkscape:zoom="0.34710964"
     inkscape:cx="607.87709"
     inkscape:cy="364.43816"
     inkscape:window-width="1200"
     inkscape:window-height="1186"
     inkscape:window-x="0"
     inkscape:window-y="25"
     inkscape:window-maximized="0"
     inkscape:current-layer="svg37"
     inkscape:clip-to-page="false" />
  <g
     transform="matrix(1.6718428,0,0,1.6718428,-346.94583,-186.75387)"
     id="g37">
    <g
       transform="translate(207.523,134.108)"
       id="g30">
      <path
         d="m 596.337,641.065 c -27.764,0 -57.934,-4.126 -87.9,-12.059 -37.059,-9.811 -71.038,-24.619 -98.263,-42.825 l 0.806,-1.206 c 27.1,18.117 60.922,32.858 97.828,42.628 33.351,8.83 66.951,12.921 97.158,11.841 l 0.052,1.45 q -4.786,0.172 -9.681,0.171 z"
         transform="translate(-265.352,-389.662)"
         fill="#090814"
         id="path1" />
      <path
         d="m 593.837,350.663 c -9.017,-2.936 -18.29,-5.669 -27.566,-8.125 -53.372,-14.13 -105.837,-19.146 -151.725,-14.5 l -0.146,-1.443 c 46.059,-4.656 98.7,0.37 152.243,14.546 9.3,2.463 18.6,5.2 27.644,8.148 z"
         transform="translate(-267.009,-287.697)"
         fill="#090814"
         id="path2" />
      <path
         d="m 289.305,480.719 c -22.245,-21.9 -31.641,-44.745 -26.456,-64.329 6.651,-25.132 36.211,-42.509 81.095,-47.675 l 0.166,1.442 c -44.26,5.094 -73.365,22.08 -79.855,46.6 -5.046,19.059 4.214,41.406 26.071,62.925 z"
         transform="translate(-207.046,-304.874)"
         fill="#090814"
         id="path3" />
      <path
         d="m 695.621,556.1 -0.465,-1.374 c 24.83,-8.4 40.361,-21.919 44.913,-39.112 5.786,-21.855 -6.784,-47.217 -35.393,-71.412 -28.755,-24.319 -70.221,-44.5 -116.762,-56.818 l 0.37,-1.4 c 46.742,12.375 88.41,32.658 117.326,57.113 29.061,24.578 41.8,50.464 35.859,72.891 -4.679,17.681 -20.534,31.552 -45.848,40.112 z"
         transform="translate(-311.667,-313.696)"
         fill="#090814"
         id="path4" />
      <path
         d="M 313.7,624.3 C 259.146,600.1 217.108,568.714 195.331,535.911 l 1.209,-0.8 c 21.627,32.578 63.444,63.781 117.747,87.866 z"
         transform="translate(-176.662,-377.825)"
         fill="#090814"
         id="path5" />
      <circle
         cx="9.3330002"
         cy="9.3330002"
         r="9.3330002"
         transform="translate(354.954,237.353)"
         fill="#e6e6e6"
         id="circle5" />
      <path
         d="m 441.405,597.806 -0.143,-0.024 a 3.9,3.9 0 0 0 0.566,-0.426 z"
         transform="translate(-277.54,-394.516)"
         fill="#ffffff"
         id="path6" />
      <path
         d="m 910.1,361.806 0.143,-0.024 a 3.9,3.9 0 0 1 -0.566,-0.426 z"
         transform="translate(-461.19,-301.988)"
         fill="#ffffff"
         id="path7" />
      <path
         d="m 343.405,294.806 -0.143,-0.024 a 3.9,3.9 0 0 0 0.566,-0.426 z"
         transform="translate(-239.119,-275.72)"
         fill="#ffffff"
         id="path8" />
      <g
         transform="translate(83.125)"
         id="g12">
        <path
           d="m 715.954,165.193 a 10.624,10.624 0 0 1 -1.639,-0.128 l -60.909,-9.556 a 10.611,10.611 0 0 1 -8.792,-12.393 l 12.707,-69.4 A 10.577,10.577 0 0 1 669.3,65.135 l 59.917,8.832 a 10.611,10.611 0 0 1 8.917,12.244 l -11.715,70.121 a 10.651,10.651 0 0 1 -10.47,8.862 z"
           transform="translate(-644.437,-65.02)"
           fill="#d6d6e3"
           id="path9" />
        <path
           d="m 732.761,119.227 a 3.02,3.02 0 0 1 -0.562,-0.053 l -47.757,-8.909 a 3.0461373,3.0461373 0 0 1 1.117,-5.989 l 47.757,8.909 a 3.047,3.047 0 0 1 -0.555,6.042 z"
           transform="translate(-658.85,-80.081)"
           fill="#090814"
           id="path10" />
        <path
           d="m 726.675,146.784 a 3,3 0 0 1 -0.416,-0.028 l -45.787,-6.235 a 3.046,3.046 0 0 1 0.823,-6.036 l 45.787,6.235 a 3.046,3.046 0 0 1 -0.407,6.065 z"
           transform="translate(-657.268,-91.695)"
           fill="#090814"
           id="path11" />
        <path
           d="m 706.086,174.125 a 3.109,3.109 0 0 1 -0.49,-0.04 l -30.946,-5.008 a 3.0461809,3.0461809 0 0 1 0.974,-6.014 l 30.946,5.008 a 3.047,3.047 0 0 1 -0.484,6.054 z"
           transform="translate(-655.06,-102.67)"
           fill="#090814"
           id="path12" />
      </g>
      <g
         transform="translate(116.389,183.388)"
         id="g16">
        <path
           d="m 23.976,509.091 a 10.619,10.619 0 0 1 -10.4,-8.63 L 0.395,431.154 a 10.569,10.569 0 0 1 8.079,-12.33 l 59.069,-13.38 a 10.609,10.609 0 0 1 12.734,8.2 l 14.372,69.624 a 10.644,10.644 0 0 1 -8.143,12.514 L 26.25,508.845 a 10.724,10.724 0 0 1 -2.274,0.246 z"
           transform="translate(-0.204,-405.178)"
           fill="#d6d6e3"
           id="path13" />
        <path
           d="m 29.536,463.17 a 3.047,3.047 0 0 1 -0.556,-6.042 l 47.754,-8.921 a 3.0463208,3.0463208 0 0 1 1.119,5.989 L 30.1,463.118 a 3.025,3.025 0 0 1 -0.563,0.053 z"
           transform="translate(-10.303,-421.688)"
           fill="#090814"
           id="path14" />
        <path
           d="m 36.6,491.739 a 3.047,3.047 0 0 1 -0.7,-6.011 l 44.953,-10.7 a 3.047,3.047 0 1 1 1.411,5.928 l -44.953,10.7 a 3.071,3.071 0 0 1 -0.708,0.083 z"
           transform="translate(-13.018,-431.979)"
           fill="#090814"
           id="path15" />
        <path
           d="m 41.549,523.081 a 3.047,3.047 0 0 1 -0.628,-6.027 l 30.668,-6.495 a 3.0461767,3.0461767 0 1 1 1.263,5.96 l -30.668,6.495 a 3.072,3.072 0 0 1 -0.635,0.067 z"
           transform="translate(-14.918,-445.637)"
           fill="#090814"
           id="path16" />
      </g>
      <g
         transform="translate(383.897,90.138)"
         id="g27">
        <path
           d="m 73.06,87.437 a 7.833,7.833 0 0 0 7.659,-6.315 L 94.372,10.7 A 7.8,7.8 0 0 0 86.882,1.418 L 20.907,0 A 7.75,7.75 0 0 0 13.076,6.346 L 0.136,74.639 a 7.8,7.8 0 0 0 7.24,9.239 l 65.263,3.547 c 0.141,0.008 0.282,0.012 0.422,0.012 z"
           fill="#000000"
           id="path17" />
        <g
           transform="rotate(8,-51.250413,242.73919)"
           id="g26">
          <path
             d="m 36.7,18.352 a 22.261,22.261 0 0 1 -0.357,3.968 19.5,19.5 0 0 1 -1.929,4.785 c -1.632,2.9 -3.382,3.982 -4.821,6.82 -0.247,0.191 -0.5,0.363 -0.761,0.532 -0.517,0.334 -0.573,1.966 -1.122,2.247 0,0 -0.008,0 -0.011,0.008 a 2.075,2.075 0 0 0 -0.283,0.944 v 0.008 c -0.277,1.622 -0.517,4.921 -0.793,6.873 -0.037,0.236 -0.071,0.453 -0.109,0.644 -0.094,0.517 -0.191,0.847 -0.3,0.887 -1.337,0.517 -1.906,-0.191 -3.372,0 -0.787,0.105 -4.8,0.749 -5.618,0.749 -2.318,0 -3.573,-0.79 -5.449,-1.637 -0.131,-0.057 -0.262,-0.116 -0.4,-0.176 -0.051,-0.019 -0.093,-0.041 -0.142,-0.06 -0.538,-0.228 -1.048,-5.989 -1.554,-8.169 a 0.014,0.014 0 0 1 0,-0.011 C 9.574,36.311 9.469,36.015 9.364,35.955 L 9.286,35.91 C 8.952,35.719 8.627,35.51 8.308,35.292 6.378,32.078 2.652,29.021 0.808,24.022 A 21.065,21.065 0 0 1 0,18.352 a 18.352,18.352 0 1 1 36.7,0 z"
             transform="translate(0.289,9.868)"
             fill="#e6e6e6"
             id="path18" />
          <path
             d="m 36.638,23.043 a 19.5,19.5 0 0 1 -1.929,4.783 c -1.632,2.9 -3.382,3.982 -4.821,6.82 a 27.307,27.307 0 0 0 -2.33,9.065 c -0.034,0.266 0.037,0.569 0,0.831 -0.085,0.58 0.019,0.476 -0.334,1 -0.161,0.09 -0.259,-0.037 -0.312,-0.283 a 7.821,7.821 0 0 1 -0.022,-1.88 24.759,24.759 0 0 1 0.816,-4.993 v -0.008 c 0.09,-0.326 0.187,-0.641 0.283,-0.944 1.734,-5.281 4.933,-7.674 6.382,-10.438 7.614,-14.488 -6.457,-30.66 -21.955,-25.035 -0.831,0.3 -0.787,0.479 -0.831,0.5 A 16.9,16.9 0 0 0 8.343,3.958 C 1.476,8.63 -0.988,17.877 2.109,25.5 3.786,29.624 7.3,31.95 9.574,36.636 q 0.2,0.408 0.393,0.854 a 0.014,0.014 0 0 0 0,0.011 22.9,22.9 0 0 1 1.7,8.229 c 0,0.051 0.008,0.1 0.008,0.146 0.135,0.011 0.266,0.019 0.393,0.03 1.989,0.172 3.277,0.491 3.944,0.146 l 0.734,0.075 c 0.243,0.34 4.335,-0.075 4.989,-0.083 H 21.9 a 45.605,45.605 0 0 0 4.9,-0.139 c 0.083,-0.008 0.168,-0.019 0.251,-0.03 a 0.438,0.438 0 0 1 0.334,0.5 3.963,3.963 0 0 1 -1,1.993 C 25.617,48.817 13.108,49.046 11.913,48.203 A 1.877,1.877 0 0 1 11.25,45.959 c -0.022,-0.105 -0.482,-0.4 -0.5,-0.5 -0.224,-1.275 0.041,-4.505 -1.494,-8.15 A 9.834,9.834 0 0 0 8.6,36.013 C 6.667,32.8 2.941,29.743 1.1,24.74 A 18.7,18.7 0 0 1 0.115,16.35 C 0.778,9.308 6.851,2.38 13.667,0.63 a 18.673,18.673 0 0 1 22.971,22.413 z"
             transform="translate(0,9.149)"
             fill="#010001"
             id="path19" />
          <path
             d="m 15.362,0 c 1.187,1.129 0.553,1.511 0,2.828 -0.7,-0.157 -12.64,0.606 -14.3,0 A 1.695,1.695 0 0 1 0.558,0 a 66.685,66.685 0 0 0 14.8,0 z"
             transform="translate(11.212,57.902)"
             fill="#010001"
             id="path20" />
          <path
             d="m 16.306,0.333 c 0.467,1.039 -0.427,1.676 -0.832,2.495 L 14.643,2.994 1.5,2.828 C 0.711,2.675 0.209,1.567 0,0.832 a 0.491,0.491 0 0 1 0.25,-0.5 L 1.336,0 a 118.189,118.189 0 0 0 13.057,0.333 1.9,1.9 0 0 1 1.913,0 z"
             transform="translate(10.933,60.896)"
             fill="#010001"
             id="path21" />
          <path
             d="M 6.7,19.229 H 6.351 V 13.6 L 0,0.147 0.312,0 6.7,13.516 Z"
             transform="translate(9.763,28.467)"
             fill="#0f0f10"
             id="path22" />
          <path
             d="m 0.163,0.029 c 0.7,-0.479 0.716,5.14 0.5,5.323 -0.822,0.692 -0.736,-5.162 -0.5,-5.323 z"
             transform="translate(18.383)"
             fill="#f2f2f2"
             id="path23" />
          <path
             d="M 0.029,0.017 C 0.584,-0.34 1.859,4.981 1.777,5.256 1.307,6.823 -0.23,0.184 0.029,0.017 Z"
             transform="translate(12.86,0.511)"
             fill="#f2f2f2"
             id="path24" />
          <path
             d="M 1.074,0 C 1.734,-0.174 0.623,5 0.492,5.24 -0.754,7.513 0.717,0.1 1.074,0 Z"
             transform="translate(23.126,0.524)"
             fill="#f2f2f2"
             id="path25" />
          <path
             d="M 0.283,20.141 0,13.882 0.006,13.858 3.377,0 3.712,0.082 0.347,13.916 l 0.28,6.21 z"
             transform="translate(21.543,27.563)"
             fill="#0f0f10"
             id="path26" />
        </g>
      </g>
      <circle
         cx="9.3330002"
         cy="9.3330002"
         r="9.3330002"
         transform="translate(333.842,58.055)"
         fill="#e6e6e6"
         id="circle27" />
      <circle
         cx="9.3330002"
         cy="9.3330002"
         r="9.3330002"
         transform="translate(253.958,60.608)"
         fill="#000000"
         id="circle28" />
      <circle
         cx="9.3330002"
         cy="9.3330002"
         r="9.3330002"
         transform="translate(84.849,174.055)"
         fill="#000000"
         id="circle29" />
      <circle
         cx="9.3330002"
         cy="9.3330002"
         r="9.3330002"
         transform="translate(0,136.131)"
         fill="#e6e6e6"
         id="circle30" />
    </g>
  </g>
</svg>
