<?xml version="1.0" encoding="UTF-8" standalone="no"?>
<svg
   width="881.63116"
   height="392.60507"
   viewBox="0 0 881.63115 392.60507"
   role="img"
   artist="Katerina Limpitsouni"
   source="https://undraw.co/"
   version="1.1"
   id="svg37"
   sodipodi:docname="undraw_adventure_9my9.svg"
   inkscape:version="1.4-beta3 (01c8a1ca, 2024-08-28)"
   xmlns:inkscape="http://www.inkscape.org/namespaces/inkscape"
   xmlns:sodipodi="http://sodipodi.sourceforge.net/DTD/sodipodi-0.dtd"
   xmlns="http://www.w3.org/2000/svg"
   xmlns:svg="http://www.w3.org/2000/svg">
  <defs
     id="defs37" />
  <sodipodi:namedview
     id="namedview37"
     pagecolor="#ffffff"
     bordercolor="#000000"
     borderopacity="0.25"
     inkscape:showpageshadow="2"
     inkscape:pageopacity="0.0"
     inkscape:pagecheckerboard="0"
     inkscape:deskcolor="#d1d1d1"
     inkscape:zoom="1.1137462"
     inkscape:cx="303.48027"
     inkscape:cy="382.49288"
     inkscape:window-width="2560"
     inkscape:window-height="1387"
     inkscape:window-x="0"
     inkscape:window-y="25"
     inkscape:window-maximized="1"
     inkscape:current-layer="svg37" />
  <path
     d="m 718.26353,140.52563 a 140.208,140.208 0 1 1 -8.87687,-49.37215 c 0.30571,0.82337 0.60383,1.64665 0.8939,2.478 v 0.008 q 1.941,5.48139 3.41908,11.16677 a 141.16005,141.16005 0 0 1 4.56389,35.71951 z"
     fill="#3f3d56"
     id="path13" />
  <path
     d="m 561.66744,45.29151 a 47.35963,47.35963 0 0 0 -41.57716,-1.701 c -5.81324,2.52993 -11.93436,7.06832 -13.87361,15.26383 7.84327,-4.62882 17.99616,2.68468 20.01444,14.417 l -0.47109,0.12993 c -1.066,8.12629 1.31372,16.97369 5.92084,22.01256 a 15.48213,15.48213 0 0 1 7.43131,-11.02138 c 3.385,-2.22516 7.12967,-3.84161 9.71336,-7.66641 3.06291,-4.53441 3.84071,-11.16135 5.0575,-17.20679 1.21679,-6.04544 3.52505,-12.5432 7.78441,-14.22774 z"
     fill="#000000"
     id="path14" />
  <path
     d="m 517.76366,114.44368 c -2.17217,3.2622 -5.07359,5.309 -7.67708,7.85756 a 17.673,17.673 0 0 0 -5.58339,10.43745 c -0.3294,2.83875 0.1803,5.72444 0.10968,8.59467 -0.0704,2.87 -1.02726,6.10086 -2.97981,6.81446 -3.0819,1.11344 -5.43446,-4.611 -8.60244,-5.01093 -2.51732,-0.31367 -4.78353,3.64648 -4.05429,7.0812 0.72924,3.43472 4.15619,4.956 6.12447,2.71326 1.78011,2.98768 0.52534,8.4065 -2.14867,9.32391 -0.28238,1.882 -0.56459,3.75626 -0.8391,5.63827 -6.75968,-4.72864 -13.58987,-9.53558 -19.33792,-16.46 a 49.96208,49.96208 0 0 1 -11.38632,-26.91309 c -0.745,-7.95946 0.36069,-17.06384 -3.29348,-23.18821 -2.92511,-4.90116 -7.94391,-5.98341 -12.46079,-5.67752 -0.82337,0.0548 -1.65452,0.14893 -2.478,0.25092 a 139.609,139.609 0 0 1 10.108,-23.13341 9.90259,9.90259 0 0 0 2.53287,-1.57631 c 4.20329,-3.56795 6.06967,-10.79035 9.48079,-15.7856 q 0.32945,-0.48231 0.68222,-0.941 c 3.4897,-4.55617 8.16337,-6.90087 12.68024,-9.08091 9.99836,-4.85405 20.2867,-9.77086 30.84187,-9.0965 l -3.00341,0.29016 q -5.25787,14.727 -10.5238,29.45395 -0.8,2.25833 -1.61536,4.52475 c -1.99188,5.5833 -4.04642,11.52746 -3.74053,17.77743 0.18039,3.70128 1.46636,7.65366 3.913,8.924 2.282,1.17629 4.77566,-0.26665 6.97912,-1.69385 0.93323,-0.596 1.8586,-1.192 2.79174,-1.79584 3.34846,-2.15654 7.05761,-4.36787 10.59432,-2.925 3.23869,1.31743 5.63041,5.71676 6.08523,10.461 a 20.91408,20.91408 0 0 1 -3.19916,13.13518 z"
     fill="#000000"
     id="path15" />
  <path
     d="m 537.67864,181.47337 q -14.66931,-9.03208 -29.33862,-18.06407 l 0.16592,-0.4276 c -6.08043,2.31595 -8.60489,13.12429 -7.6,21.96319 1.00489,8.8389 4.41217,16.7404 6.13351,25.35279 a 67.2942,67.2942 0 0 1 -2.53712,35.31109 289.18421,289.18421 0 0 0 33.971,-46.8107 25.04407,25.04407 0 0 0 3.07286,-6.81366 10.83932,10.83932 0 0 0 -0.71849,-7.70945 8.58324,8.58324 0 0 0 -3.14906,-2.80159 z"
     fill="#000000"
     id="path16" />
  <path
     d="m 499.0822,71.92678 a 10.814,10.814 0 0 0 -0.49559,7.86407 8.717,8.717 0 0 0 4.87015,4.51064 l 5.40363,2.67844 c 1.79765,0.8911 3.73537,1.79106 5.56792,1.05792 2.21034,-0.88422 3.74288,-4.3495 3.34647,-7.56649 -0.422,-3.42333 -2.57979,-5.77807 -4.57546,-7.78333 q -4.18925,-4.2093 -8.37839,-8.41857 l -1.57395,1.92777 a 21.0205,21.0205 0 0 0 -4.16478,5.72955 z"
     fill="#000000"
     id="path17" />
  <path
     d="m 689.29581,108.52312 q 3.64657,0.85868 7.293,1.71727 c -0.42353,8.21047 -4.49336,15.80924 -9.95125,18.56165 -2.27417,1.145 -4.807,1.56835 -6.68914,3.70924 -1.70163,1.94477 -2.56433,4.9716 -3.35633,7.86524 q -2.08193,7.57527 -4.16405,15.15035 c -1.48986,5.44225 -3.40325,11.48841 -7.27715,13.44882 -3.32495,1.68589 -7.12823,-0.37651 -9.6846,-3.83474 -2.55646,-3.45814 -4.11694,-8.10839 -5.6305,-12.64091 0.0941,4.94032 -2.20346,9.7866 -5.45788,11.50387 -3.2622,1.71727 -7.23022,0.16465 -9.41017,-3.66991 -1.56835,-2.7525 -2.2192,-6.38334 -3.75626,-9.175 -1.537,-2.79165 -4.75993,-4.39137 -6.43814,-1.77224 -1.10575,1.741 -0.9646,4.4071 -1.51355,6.61852 a 7.187,7.187 0 0 1 -6.00674,5.77942 10.01659,10.01659 0 0 1 -7.191,-3.2858 32.57391,32.57391 0 0 1 -8.93185,-18.01262 21.48785,21.48785 0 0 1 0.251,-9.84934 c 0.96451,-3.05034 3.29348,-5.40282 5.6068,-4.82268 1.52133,-3.21527 -1.482,-7.48114 -4.18747,-7.10472 -2.71335,0.37642 -4.83841,3.28571 -7.06547,5.52064 -2.2192,2.23493 -5.32452,3.85816 -7.55954,1.63887 a 3.06647,3.06647 0 0 1 -2.87221,3.24909 q -0.12043,0.007 -0.241,0.005 a 11.12,11.12 0 0 1 -4.0542,-2.14867 c -5.1207,-3.19167 -11.62168,-1.07429 -15.26021,4.96382 2.27417,-9.67682 5.6069,-20.78084 12.59389,-23.055 2.85458,-0.93314 5.96777,-0.16465 8.66529,-1.78011 4.77575,-2.86217 5.74026,-13.67613 1.61545,-18.138 0.52535,4.21885 0.42353,9.14352 -1.80362,12.02939 -2.22706,2.88587 -6.90082,1.00367 -6.61843,-3.2622 a 2.85789,2.85789 0 0 1 -5.31674,1.12918 c -1.48209,-2.25835 -1.35658,-5.95186 -0.3058,-8.64947 a 20.37318,20.37318 0 0 1 4.57176,-6.493 c 3.72488,-3.99144 7.50464,-8.03 11.81771,-10.53944 4.32085,-2.50935 9.30827,-3.35623 13.63689,-0.86252 2.28213,1.31734 4.28956,3.51312 6.61853,4.67367 a 4.90462,4.90462 0 0 0 6.75352,-1.58164 q 0.0393,-0.0633 0.0768,-0.12795 c 1.733,-3.04266 0.9174,-7.55953 1.56048,-11.36276 1.15268,-6.72039 7.87311,-9.865 11.598,-5.42656 -2.78378,-0.71355 -5.66178,2.58 -6.00683,6.57156 -0.35282,3.99144 1.66257,8.02217 4.36009,9.22982 4.53261,2.00743 8.971,-3.04274 12.39794,-7.71641 q 5.36367,-7.34 10.74325,-14.672 a 17.72683,17.72683 0 0 1 1.92117,-2.33688 6.182,6.182 0 0 1 8.44565,-0.17248 c 3.62289,2.95631 5.32461,9.01811 8.29674,13.1899 4.313,6.06171 10.76684,7.536 16.77358,8.71226 q 6.71645,1.30572 13.441,2.627 a 139.27,139.27 0 0 1 7.80258,17.22858 47.22139,47.22139 0 0 0 -20.09096,17.36955 z"
     fill="#000000"
     id="path18" />
  <path
     d="m 713.69964,104.8061 a 28.26539,28.26539 0 0 0 -1.49,8.39855 c -3.84251,-4.6894 -4.45421,-13.48 -1.92912,-19.56532 q 1.94105,5.48139 3.41912,11.16677 z"
     fill="#000000"
     id="path19" />
  <path
     d="m 703.77193,202.87604 a 140.59469,140.59469 0 0 1 -11.68435,19.54959 c -2.823,-1.20766 -5.85781,0.94878 -8.50054,2.972 -2.76036,2.11729 -6.07745,4.17969 -8.90834,2.25057 -2.89355,-1.97615 -3.82678,-7.50456 -2.90928,-11.88824 a 31.67566,31.67566 0 0 1 5.4265,-11.16678 c 2.35257,-3.51312 4.8697,-7.1596 8.13986,-8.52405 3.27793,-1.36445 7.48891,0.56459 8.44565,5.2227 l 2.32119,-0.0785 c -1.30178,-1.78789 -0.61947,-5.48926 1.12927,-6.14011 2.01529,-0.76061 3.76412,2.00744 4.956,4.45422 0.53323,1.1057 1.07421,2.21933 1.58404,3.34859 z"
     fill="#000000"
     id="path20" />
  <path
     d="m 614.87243,169.75276 c -4.98924,0.31376 -8.94125,-5.82824 -11.56734,-11.87061 -2.62609,-6.04237 -5.02233,-12.95222 -9.52411,-16.02779 -2.57228,-1.75742 -5.5049,-1.99848 -8.29492,-2.85015 a 10.27089,10.27089 0 0 1 -7.04432,-6.202 l -3.1649,-1.27846 a 47.53038,47.53038 0 0 0 -12.01619,8.56791 26.85619,26.85619 0 0 0 -7.16005,15.65327 c -0.60456,6.33487 1.62793,13.39863 5.7994,15.77832 3.2961,1.88039 7.13365,0.69516 10.47234,2.41659 4.17147,2.15065 6.648,8.39836 7.58549,14.56713 0.93749,6.16877 0.69985,12.57951 1.37059,18.81827 0.67074,6.23876 2.51922,12.73042 6.34474,15.92752 4.78714,4.00084 11.81165,0.67634 13.95941,-6.60659 1.0535,-3.57234 1.01724,-7.60339 1.80525,-11.31163 1.3876,-6.53046 5.1321,-11.37556 8.102,-16.73244 2.9699,-5.35688 5.30785,-12.63246 3.33261,-18.84934 z"
     fill="#000000"
     id="path21" />
  <path
     d="m 565.57144,105.58191 a 13.31493,13.31493 0 0 1 1.29926,1.37928 4.53137,4.53137 0 0 1 -0.0798,4.67936 4.35313,4.35313 0 0 0 3.11762,-1.58453 20.04039,20.04039 0 0 0 2.39036,-3.36718 3.67,3.67 0 0 0 0.70483,-2.93722 c -0.23573,-0.67264 -0.79308,-0.95955 -1.18379,-1.46545 a 9.959,9.959 0 0 1 -1.09336,-3.17585 5.728,5.728 0 0 0 -4.151,-4.37464 l 0.25,0.0478 a 2.37166,2.37166 0 0 0 -1.11091,2.52635 c 0.15145,0.97854 0.78024,1.791 0.71767,2.789 -0.09,1.43516 -1.52423,2.10861 -1.61284,3.54395 a 2.73986,2.73986 0 0 0 0.75192,1.9391 z"
     fill="#000000"
     id="path22" />
  <path
     d="m 557.02325,81.19364 0.0222,-0.004 a 4.0049,4.0049 0 0 0 0.4257,-0.45346 z"
     fill="#000000"
     id="path23" />
  <path
     d="m 558.51953,87.93007 a 4.3509,4.3509 0 0 0 1.3544,-4.31316 c -0.3624,-1.63182 -1.6452,-2.729 -2.82845,-2.42761 a 2.88291,2.88291 0 0 1 -2.68052,0.78919 c -0.7315,-0.18835 -1.53462,-0.67336 -2.1691,-0.12216 a 3.28391,3.28391 0 0 0 -0.73883,1.44267 q -0.35223,1.08138 -0.70456,2.1625 a 1.36467,1.36467 0 0 0 -0.0833,0.81948 0.69422,0.69422 0 0 0 0.5324,0.42326 q 2.11355,0.62309 4.2269,1.24609 a 3.64169,3.64169 0 0 0 3.09104,-0.0203 z"
     fill="#000000"
     id="path24" />
  <path
     d="m 664.88737,180.93338 q -0.97695,-1.59951 -1.9539,-3.199 a 10.68739,10.68739 0 0 0 -2.57473,-3.2329 2.28137,2.28137 0 0 0 -3.21391,0.28383 l -0.034,0.0415 0.0793,0.60908 a 13.75492,13.75492 0 0 1 3.43183,6.69592 c 0.14847,1.08975 0.0968,2.21757 0.227,3.31211 a 3.86276,3.86276 0 0 0 1.20666,2.70141 c 1.02555,0.68512 2.22977,-0.32506 2.95965,-1.55768 a 5.36363,5.36363 0 0 0 0.831,-3.4141 5.98661,5.98661 0 0 0 -0.9589,-2.24017 z"
     fill="#000000"
     id="path25" />
  <path
     d="m 675.10455,182.32106 a 7.38352,7.38352 0 0 0 -0.23844,-2.97719 6.53562,6.53562 0 0 1 0.99454,-3.70508 12.04549,12.04549 0 0 0 1.54963,-3.39738 2.84187,2.84187 0 0 0 -0.0743,-1.66374 c -0.21557,-0.48429 -0.73775,-0.70519 -1.03731,-0.32171 l 0.641,0.41286 a 5.83706,5.83706 0 0 0 -2.60122,0.126 3.21925,3.21925 0 0 0 -1.97144,2.22236 13.756,13.756 0 0 1 -0.517,2.30582 c -0.38239,0.78594 -1.12248,1.04734 -1.58761,1.73716 a 4.15333,4.15333 0 0 0 0.0654,3.94569 4.60591,4.60591 0 0 0 2.60511,2.04866 c 0.78282,0.28089 1.81353,0.29572 2.17168,-0.73345 z"
     fill="#000000"
     id="path26" />
  <path
     d="m 693.29937,187.81068 a 8.95043,8.95043 0 0 0 1.12736,2.06923 c 0.87112,0.87744 2.05491,0.33817 3.11165,0.125 a 5.38,5.38 0 0 1 5.118,2.05282 13.02708,13.02708 0 0 0 -7.49235,-9.34751 22.01127,22.01127 0 0 0 -7.70539,-1.20494 l -0.44749,0.11465 c 1.1403,3.31917 4.72096,3.24498 6.28822,6.19075 z"
     fill="#000000"
     id="path27" />
  <path
     d="m 616.23733,194.59965 0.007,0.0145 0.1302,-0.25074 z"
     fill="#000000"
     id="path28" />
  <path
     d="m 613.47705,199.94234 a 24.52,24.52 0 0 0 -1.54854,3.40172 29.61322,29.61322 0 0 0 -1.1223,5.82065 c -0.14015,1.12176 -0.18347,2.55447 0.51937,3.10107 a 0.99689,0.99689 0 0 0 1.30414,-0.17714 5.1574,5.1574 0 0 0 0.94544,-1.40522 32.37207,32.37207 0 0 0 3.19149,-7.57464 13.181,13.181 0 0 0 -0.52272,-8.49466 q -1.3833,2.66419 -2.76688,5.32822 z"
     fill="#000000"
     id="path29" />
  <path
     d="m 586.84893,57.6008 a 3.14244,3.14244 0 0 0 3.38671,0.661 11.18336,11.18336 0 0 0 3.1866,-2.10486 7.49787,7.49787 0 0 0 1.93175,-2.1073 4.274,4.274 0 0 0 0.39514,-3.25568 3.30689,3.30689 0 0 0 -2.52057,-1.99387 q -2.34587,-0.69572 -4.69175,-1.39126 l 1.13135,-1.01967 c -1.164,-0.62467 -2.45167,0.53465 -3.17919,1.97 a 10.60635,10.60635 0 0 0 -0.96507,2.97082 7.62575,7.62575 0 0 0 1.32503,6.27082 z"
     fill="#000000"
     id="path30" />
  <path
     d="m 614.45966,48.33159 a 2.58352,2.58352 0 0 0 3.52116,0.28645 3.93607,3.93607 0 0 0 1.55741,-2.80512 c 0.11067,-1.23017 -0.49759,-2.59742 -1.36626,-2.70367 l 0.19883,-1.15178 c -1.6735,-0.30223 -3.73274,-0.36277 -4.62954,1.66949 a 4.77133,4.77133 0 0 0 0.7184,4.70463 z"
     fill="#000000"
     id="path31" />
  <g
     opacity="0.35"
     id="g32"
     transform="translate(2.8156734e-5,-52.86999)">
    <path
       d="m 1035.5869,356.36 c 9.2354,-4.02679 -9.4939,-6.37086 -30.7431,-7.1416 -21.24924,-0.77074 -46.95468,-0.72807 -60.53407,-2.92023 -13.13324,-2.12019 -12.16556,-5.88992 -13.27032,-9.30547 -1.10476,-3.41555 -6.15367,-6.91763 -26.6468,-7.6769 -25.53707,-0.94607 -67.64925,2.69572 -86.92685,0.50934 -17.98965,-2.04034 -7.29614,-8.44041 -33.52827,-8.68536 -14.97928,-0.13988 -34.27668,1.97009 -50.9442,2.47934 a 185.71585,185.71585 0 0 1 -35.34826,-1.843 c -8.12394,-1.331 -13.78228,-3.01842 -22.92545,-4.19407 -24.00443,-3.0866 -70.96868,-2.04911 -112.886,1.90679 -41.91732,3.9559 -77.84811,10.43889 -98.11194,16.85994 -20.26383,6.42105 -25.86226,12.74308 -21.142,18.10412 3.01413,3.42333 10.7272,6.6244 29.43709,8 34.99571,2.573 97.30254,-1.85588 133.46458,0.48511 20.15469,1.30468 29.09612,4.53948 46.77988,6.30947 18.99811,1.90163 46.80972,2.00236 74.13458,1.95733 56.89389,-0.0939 115.24291,-0.67851 174.74127,-1.75045 24.85141,-0.44776 50.89076,-1.02989 77.33484,-3.16373 26.44412,-2.13384 53.41592,-6.25087 58.99492,-10.11039"
       transform="translate(-156.3731,-156.0101)"
       fill="#ffffff"
       id="path32" />
  </g>
  <path
     d="m 718.651,325.33339 c -12.91211,0 -27.0643,-0.48796 -42.45655,-1.46387 -79.61377,-5.05566 -182.73779,-22.63281 -290.376,-49.49218 C 278.18075,247.51796 178.88827,214.58339 106.233,181.64296 70.840418,165.59609 43.676848,150.40663 25.497648,136.4955 6.2505782,121.7685 -2.1683518,108.9315 0.47371816,98.34267 1.6515448,93.622873 9.5609487,80.544392 41.637685,76.373298 69.575759,72.740374 77.12282,72.339311 142.96158,77.270952 c 40.66369,3.045907 18.02814,1.379431 112.56183,14.428811 51.64196,7.128627 109.68705,19.227887 157.31021,25.392367 2.89079,0.3742 -1.66621,3.15155 -1.57488,3.10512 0,0 -22.00374,-3.65283 -56.19749,-9.19439 C 326.85773,106.43209 290.36112,100.57638 251.07826,94.425613 193.23037,85.368006 140.86772,79.073543 92.698358,77.432764 80.87035,77.481317 63.370947,76.251775 50.868887,78.042636 20.106831,82.449154 6.194231,87.810472 3.3848882,99.06926 c -4.65185,18.64014 33.2866198,47.74072 104.0869218,79.84131 72.4956,32.86816 171.60547,65.73926 279.07324,92.55664 107.46728,26.81641 210.40137,44.36328 289.83984,49.4082 77.57862,4.92774 124.74317,-2.9375 129.39453,-21.57812 3.86182,-15.47656 -21.59814,-38.27539 -71.68945,-64.19824 l 1.37891,-2.66407 c 36.397,18.83594 78.64551,45.85157 73.22168,67.58887 -2.64258,10.58887 -16.10547,17.96484 -40.01514,21.92285 -13.62939,2.25583 -30.37012,3.38669 -50.02441,3.38669 z"
     fill="#000000"
     id="path33"
     sodipodi:nodetypes="scccccsssscsscsccccsccccss" />
  <path
     d="m 225.99643,329.23963 c -35.59912,0.001 -68.69433,-1.2207 -98.32226,-3.68554 C 88.947598,322.33143 58.259618,317.15077 36.463718,310.1576 13.387058,302.75233 1.1443782,293.4906 0.07552816,282.62928 -2.0074718,261.47108 39.409528,241.90467 74.520848,229.2162 l 1.01953,2.82226 c -48.2168,17.42383 -73.9569998,35.28613 -72.4794898,50.29785 1.88183,19.11914 47.3920898,33.78125 124.8618118,40.22754 79.3252,6.60059 183.71729,4.26172 293.94727,-6.58984 110.23,-10.84863 213.07568,-28.90625 289.59131,-50.8457 74.72607,-21.42579 116.50488,-44.67969 114.623,-63.79883 -1.5625,-15.874 -33.20263,-28.793 -89.09179,-36.37891 l 0.40332,-2.97265 c 40.60986,5.51171 89.47949,16.76171 91.67382,39.05761 1.06934,10.86133 -9.1333,22.332 -30.32275,34.09375 -20.01465,11.10938 -49.10352,22.17285 -86.4585,32.88281 -76.685,21.98829 -179.71972,40.08106 -290.12451,50.94825 -69.25923,6.8164 -136.24507,10.27929 -196.16744,10.27929 z"
     fill="#000000"
     id="path34" />
  <circle
     cx="437.84784"
     cy="375.12201"
     r="17.483049"
     fill="#000000"
     id="circle34" />
  <circle
     cx="93.574272"
     cy="271.90271"
     r="17.483049"
     fill="#e6e6e6"
     id="circle35" />
  <circle
     cx="414.57291"
     cy="10.70234"
     r="10.70234"
     fill="#ff6584"
     id="circle36" />
  <circle
     cx="349.81973"
     cy="84.711998"
     r="17.483049"
     fill="#e6e6e6"
     id="circle37" />
</svg>
