<?xml version="1.0" encoding="UTF-8" standalone="no"?>
<svg
   width="299"
   height="386"
   viewBox="0 0 299 385.99999"
   role="img"
   artist="Katerina Limpitsouni"
   source="https://undraw.co/"
   version="1.1"
   id="svg29"
   sodipodi:docname="undraw_advanced-customization_7ms4.svg"
   inkscape:version="1.4-beta3 (01c8a1ca, 2024-08-28)"
   xmlns:inkscape="http://www.inkscape.org/namespaces/inkscape"
   xmlns:sodipodi="http://sodipodi.sourceforge.net/DTD/sodipodi-0.dtd"
   xmlns="http://www.w3.org/2000/svg"
   xmlns:svg="http://www.w3.org/2000/svg">
  <defs
     id="defs29" />
  <sodipodi:namedview
     id="namedview29"
     pagecolor="#ffffff"
     bordercolor="#000000"
     borderopacity="0.25"
     inkscape:showpageshadow="2"
     inkscape:pageopacity="0.0"
     inkscape:pagecheckerboard="0"
     inkscape:deskcolor="#d1d1d1"
     inkscape:zoom="0.45930811"
     inkscape:cx="-50.075319"
     inkscape:cy="353.79301"
     inkscape:window-width="1200"
     inkscape:window-height="1186"
     inkscape:window-x="0"
     inkscape:window-y="25"
     inkscape:window-maximized="0"
     inkscape:current-layer="svg29" />
  <path
     d="M 276,386 H 23 A 23.02588,23.02588 0 0 1 0,363 V 23 A 23.02619,23.02619 0 0 1 23,0 h 253 a 23.02619,23.02619 0 0 1 23,23 v 340 a 23.02588,23.02588 0 0 1 -23,23 z"
     fill="#ffffff"
     id="path14" />
  <path
     d="M 276,386 H 23 A 23.02588,23.02588 0 0 1 0,363 V 23 A 23.02619,23.02619 0 0 1 23,0 h 253 a 23.02619,23.02619 0 0 1 23,23 v 340 a 23.02588,23.02588 0 0 1 -23,23 z M 23,2 A 21.02359,21.02359 0 0 0 2,23 v 340 a 21.0239,21.0239 0 0 0 21,21 h 253 a 21.0239,21.0239 0 0 0 21,-21 V 23 A 21.02359,21.02359 0 0 0 276,2 Z"
     fill="#e6e6e6"
     id="path15" />
  <circle
     cx="60.499992"
     cy="103.25363"
     r="9"
     fill="#cccccc"
     id="circle15" />
  <path
     d="M 245.5,104.25363 H 91.25582 a 1,1 0 0 1 0,-2 H 245.5 a 1,1 0 0 1 0,2 z"
     fill="#cccccc"
     id="path16" />
  <circle
     cx="60.999992"
     cy="270.25363"
     r="9"
     fill="#cccccc"
     id="circle16" />
  <circle
     cx="60.561272"
     cy="174.8528"
     r="9"
     fill="#cccccc"
     id="circle17" />
  <path
     d="m 243.5,128.85281 h -40 a 4,4 0 0 1 0,-8 h 40 a 4,4 0 0 1 0,8 z"
     fill="#000000"
     id="path17" />
  <path
     d="m 243.5,227.85281 h -40 a 4,4 0 0 1 0,-8 h 40 a 4,4 0 0 1 0,8 z"
     fill="#000000"
     id="path18" />
  <path
     d="M 214.69682,54.25363 H 99.80322 a 10.55322,10.55322 0 0 1 0,-21.10644 h 114.8936 a 10.55322,10.55322 0 1 1 0,21.10644 z"
     fill="#000000"
     id="path19" />
  <path
     d="m 243.5,352.85281 h -40 a 4,4 0 1 1 0,-8 h 40 a 4,4 0 0 1 0,8 z"
     fill="#000000"
     id="path20" />
  <path
     d="M 235.70996,328.25363 H 101.14014 A 11.11424,11.11424 0 0 1 98.62061,327.9343 11.24845,11.24845 0 0 1 90,316.96359 v -45.74023 a 11.29752,11.29752 0 0 1 11.29,-11.27979 h 134.41996 a 11.144,11.144 0 0 1 5.20264,1.27344 10.81252,10.81252 0 0 1 1.8042,1.17725 11.16537,11.16537 0 0 1 4.2832,8.8291 v 45.74023 a 11.30252,11.30252 0 0 1 -11.29004,11.29004 z M 101.29004,261.94357 a 9.29555,9.29555 0 0 0 -9.29,9.27979 v 45.74023 a 9.25724,9.25724 0 0 0 7.09473,9.02832 9.13326,9.13326 0 0 0 2.05761,0.26172 h 134.55758 a 9.30086,9.30086 0 0 0 9.29,-9.29 v -45.74027 a 9.18459,9.18459 0 0 0 -3.52783,-7.26367 8.86057,8.86057 0 0 0 -1.481,-0.96778 9.16856,9.16856 0 0 0 -4.28125,-1.04834 z"
     fill="#e6e6e6"
     id="path21" />
  <path
     d="m 226.69,327.25363 q 9.165,-22.275 19.31,-44.11 v 24.68 a 119.89862,119.89862 0 0 1 -15.92,19.43 z"
     fill="#e6e6e6"
     id="path22" />
  <path
     d="m 242.09003,263.17362 q -18.135,32.535 -37.95,64.08 h -2.3 q 20.145,-32.04 38.61,-65.15 a 9.82861,9.82861 0 0 1 1.64,1.07 z"
     fill="#e6e6e6"
     id="path23" />
  <path
     d="m 153.37,286.85361 a 407.71473,407.71473 0 0 1 -26.11,40.4 h -13.71 q 13.47006,-16.41 26.96,-32.82 c 2.58,-3.15 5.38,-6.45 9.25,-7.73 z"
     fill="#e6e6e6"
     id="path24" />
  <path
     d="m 135.15002,284.61362 c -1.43,1.49 -2.8,3.04 -4.09,4.65 -2.84,3.42 -5.64,6.87 -8.45,10.31 -1.75,2.13995 -3.5,4.28 -5.23,6.42 a 12.77008,12.77008 0 0 1 -1.56,-1.18 13.99258,13.99258 0 0 1 17.88,-21.52 12.89785,12.89785 0 0 1 1.45,1.32 z"
     fill="#000000"
     id="path25" />
  <path
     d="m 212.47998,294.33359 -26.28,-9.61 -13.05,-4.77 c -4.25,-1.55 -8.49,-3.32 -12.88,-4.44 a 20.3055,20.3055 0 0 0 -11.66,0.15 26.80777,26.80777 0 0 0 -9.09,5.64 q -1.74,1.605 -3.37,3.31 c -1.43,1.49 -2.8,3.04 -4.09,4.65 -2.84,3.42 -5.64,6.87 -8.45,10.31 -1.75,2.13995 -3.5,4.28 -5.23,6.42 q -8.67,10.605 -17.24,21.26 a 10.02168,10.02168 0 0 1 -2.28,-0.29 q 8.94,-11.09994 17.96,-22.15 c 0.69,-0.86 1.4,-1.73 2.1,-2.59 q 4.395,-5.38494 8.8,-10.76 c 2.27,-2.76995 4.52,-5.56 6.98,-8.17 0.22,-0.24 0.44,-0.47 0.67,-0.71 4.99,-5.16 11.22,-9.72 18.68,-9.84 4.39,-0.07 8.63,1.32 12.71,2.79 4.39,1.59 8.77,3.21 13.16,4.82 l 26.46,9.68 6.62,2.42 c 1.17,0.42004 0.67,2.32 -0.52,1.88 z"
     fill="#e6e6e6"
     id="path26" />
  <path
     d="M 127.03754,203.04505 H 95.84923 a 6.29506,6.29506 0 0 1 -6.288,-6.288 v -29.17612 a 6.295,6.295 0 0 1 6.288,-6.288 h 31.18831 a 6.295,6.295 0 0 1 6.288,6.288 v 29.17618 a 6.29506,6.29506 0 0 1 -6.288,6.28794 z"
     fill="#e6e6e6"
     id="path27" />
  <path
     d="m 182.66869,203.04505 h -31.18831 a 6.29506,6.29506 0 0 1 -6.288,-6.288 v -29.17612 a 6.295,6.295 0 0 1 6.288,-6.288 h 31.18831 a 6.295,6.295 0 0 1 6.288,6.288 v 29.17618 a 6.29506,6.29506 0 0 1 -6.288,6.28794 z"
     fill="#e6e6e6"
     id="path28" />
  <path
     d="m 238.29982,203.04505 h -31.1883 a 6.29506,6.29506 0 0 1 -6.288,-6.288 v -29.17612 a 6.29505,6.29505 0 0 1 6.288,-6.288 h 31.1883 a 6.29506,6.29506 0 0 1 6.288,6.288 v 29.17618 a 6.29506,6.29506 0 0 1 -6.288,6.28794 z"
     fill="#e6e6e6"
     id="path29" />
</svg>
