<?xml version="1.0" encoding="UTF-8" standalone="no"?>
<svg
   width="546.2207"
   height="481.99899"
   viewBox="0 0 546.22072 481.99899"
   role="img"
   artist="Katerina Limpitsouni"
   source="https://undraw.co/"
   version="1.1"
   id="svg18"
   sodipodi:docname="undraw_verify-data_k0y1.svg"
   inkscape:version="1.4-beta3 (01c8a1ca, 2024-08-28)"
   xmlns:inkscape="http://www.inkscape.org/namespaces/inkscape"
   xmlns:sodipodi="http://sodipodi.sourceforge.net/DTD/sodipodi-0.dtd"
   xmlns="http://www.w3.org/2000/svg"
   xmlns:svg="http://www.w3.org/2000/svg">
  <defs
     id="defs18" />
  <sodipodi:namedview
     id="namedview18"
     pagecolor="#ffffff"
     bordercolor="#000000"
     borderopacity="0.25"
     inkscape:showpageshadow="2"
     inkscape:pageopacity="0.0"
     inkscape:pagecheckerboard="0"
     inkscape:deskcolor="#d1d1d1"
     inkscape:zoom="0.33448048"
     inkscape:cx="325.87851"
     inkscape:cy="635.3136"
     inkscape:window-width="1200"
     inkscape:window-height="1186"
     inkscape:window-x="0"
     inkscape:window-y="25"
     inkscape:window-maximized="0"
     inkscape:current-layer="g18" />
  <g
     transform="translate(-484.07627,-211)"
     id="g18">
    <path
       d="m 262.786,125.085 h -2.4 V 32.6 H 434.042 V 35 H 262.786 Z"
       transform="translate(536.276,217.535)"
       fill="#3f3d56"
       id="path9" />
    <circle
       cx="33.348999"
       cy="33.348999"
       r="33.348999"
       transform="translate(963.599,211)"
       fill="#000000"
       id="circle9" />
    <path
       d="m 640.5,202.327 a 3.709,3.709 0 0 1 -2.967,-1.484 l -9.1,-12.131 a 3.71,3.71 0 1 1 5.935,-4.451 l 5.952,7.936 15.288,-22.931 a 3.71,3.71 0 1 1 6.173,4.116 l -18.2,27.294 a 3.711,3.711 0 0 1 -2.984,1.651 z"
       transform="translate(351.894,59.379)"
       fill="#ffffff"
       id="path10" />
    <g
       transform="translate(524.682,567.162)"
       id="g13">
      <path
         d="m 333.641,296.685 h 2.4 v 92.488 H 162.385 v -2.4 h 171.256 z"
         transform="translate(-95.686,-296.685)"
         fill="#3f3d56"
         id="path11" />
      <g
         transform="translate(0,59.139)"
         id="g12">
        <circle
           cx="33.348999"
           cy="33.348999"
           r="33.348999"
           fill="#000000"
           id="circle11" />
        <path
           d="m 542.5,548.327 a 3.708,3.708 0 0 1 -2.967,-1.484 l -9.1,-12.131 a 3.71,3.71 0 1 1 5.935,-4.451 l 5.952,7.936 15.288,-22.931 a 3.71,3.71 0 1 1 6.173,4.116 l -18.2,27.294 a 3.711,3.711 0 0 1 -2.984,1.651 z"
           transform="translate(-513.705,-497.621)"
           fill="#ffffff"
           id="path12" />
      </g>
    </g>
    <path
       d="m 315.324,327.307 a 70.562,70.562 0 0 1 19.266,-48.531 l -42.525,-58.529 a 20.738,20.738 0 0 0 -31.288,-2.637 151.827,151.827 0 0 0 -45.846,109.19 154.6,154.6 0 0 0 1.713,22.949 20.879,20.879 0 0 0 9.673,14.685 20.648,20.648 0 0 0 17.266,2.074 l 73.428,-23.858 a 71.005,71.005 0 0 1 -1.685,-15.341 z"
       transform="translate(269.146,68.215)"
       fill="#f2f2f2"
       id="path14" />
    <path
       d="m 316.955,327.319 -76.338,24.8 a 20.716,20.716 0 0 0 -12.235,28.819 153.042,153.042 0 0 0 113.878,83.581 20.751,20.751 0 0 0 23.907,-20.5 v -71.3 a 70.964,70.964 0 0 1 -49.213,-45.4 z"
       transform="translate(271.419,91.395)"
       fill="#e6e6e6"
       id="path15" />
    <path
       d="m 518.749,371.119 a 23.128,23.128 0 0 0 -14.172,-13.02 l -83.256,-27.052 a 70.883,70.883 0 0 1 -56.5,42.607 V 460.4 a 23.1,23.1 0 0 0 26.614,22.822 170.368,170.368 0 0 0 126.765,-93.041 22.915,22.915 0 0 0 0.551,-19.061 z"
       transform="translate(299.194,92.143)"
       fill="#3f3d56"
       id="path16" />
    <path
       d="m 491.135,199.785 a 23.085,23.085 0 0 0 -34.83,2.936 l -56.92,78.344 A 70.6,70.6 0 0 1 420,331.015 c 0,1.725 -0.083,3.429 -0.2,5.123 l 90.479,29.4 a 23.127,23.127 0 0 0 29.987,-18.654 172.067,172.067 0 0 0 1.907,-25.55 169.012,169.012 0 0 0 -51.038,-121.549 z"
       transform="translate(306.123,64.508)"
       fill="#000000"
       id="path17" />
    <path
       d="m 372.194,263.343 a 70.474,70.474 0 0 1 34.774,9.131 l 34.742,-47.818 a 20.813,20.813 0 0 0 3.4,-17.106 20.4,20.4 0 0 0 -10.55,-13.45 153.212,153.212 0 0 0 -138.509,-0.2 20.932,20.932 0 0 0 -10.917,13.77 20.632,20.632 0 0 0 3.373,16.991 l 39.412,54.246 a 70.508,70.508 0 0 1 44.275,-15.564 z"
       transform="translate(283.104,61.352)"
       fill="#e6e6e6"
       id="path18" />
  </g>
</svg>
